# xmcd
#
# Track frame offsets:
#	150
#	13837
#	28469
#	69991
#	87668
#	110340
#	130604
#	144316
#	158930
#	200421
#	218292
#	240754
#
# Disc length: 3479 seconds
#
# Revision: 1
# Processed by: cddbd v1.5.1PL2 Copyright (c) Steve Scherf et al.
# Submitted via: audiograbber 1.83.01
#
DISCID=9b0d950c
DTITLE=Chartbuster - Cb40025
DYEAR=1900
DGENRE=Country
TTITLE0=Black Oak Arkansas - Jim Dandy
TTITLE1=Bishop, Elvin - Fooled Around And Fell In Love
TTITLE2=Lynyrd Skynyrd - Free Bird
TTITLE3=Marshall Tucker Band - Can't You See
TTITLE4=Allman Brothers Band, The - Ramblin' Man
TTITLE5=38 Special - Caught Up In You
TTITLE6=Black Oak Arkansas - Jim Dandy
TTITLE7=Bishop, Elvin - Fooled Around And Fell In Love
TTITLE8=Lynyrd Skynyrd - Free Bird
TTITLE9=Marshall Tucker Band - Can't You See
TTITLE10=Allman Brothers Band, The - Ramblin' Man
TTITLE11=38 Special - Caught Up In You
EXTD=
EXTT0=
EXTT1=
EXTT2=
EXTT3=
EXTT4=
EXTT5=
EXTT6=
EXTT7=
EXTT8=
EXTT9=
EXTT10=
EXTT11=
PLAYORDER=
